HIERARCHY
ROOT Hips
{
  OFFSET 0.000000 0.000000 0.000000
  CHANNELS 6 Xposition Yposition Zposition Xrotation Yrotation Zrotation
  JOINT Spine
  {
    OFFSET 0.881470 21.810334 -9.076147
    CHANNELS 3 Xrotation Yrotation Zrotation
    JOINT Chest
    {
      OFFSET 0.881470 21.810334 -9.076147
      CHANNELS 3 Xrotation Yrotation Zrotation
      JOINT Neck
      {
        OFFSET 0.000000 4.674388 0.000000
        CHANNELS 3 Xrotation Yrotation Zrotation
        JOINT Head
        {
          OFFSET 0.000000 4.678088 0.000000
          CHANNELS 3 Xrotation Yrotation Zrotation
          End Site
          {
            OFFSET 0.000000 1.403426 0.000000
          }
        }
      }
      JOINT LeftCollar
      {
        OFFSET 3.000000 4.000000 0.000000
        CHANNELS 3 Xrotation Yrotation Zrotation
        JOINT LeftShoulder
        {
          OFFSET 15.792676 -2.209392 -1.224738
          CHANNELS 3 Xrotation Yrotation Zrotation
          JOINT LeftArm
          {
            OFFSET 3.082085 -20.340128 -8.765461
            CHANNELS 3 Xrotation Yrotation Zrotation
            JOINT LeftForeArm
            {
              OFFSET -6.633304 3.932203 -15.582597
              CHANNELS 3 Xrotation Yrotation Zrotation
              JOINT LeftHand
              {
                OFFSET -2.474855 3.119097 -1.955211
                CHANNELS 3 Xrotation Yrotation Zrotation
                End Site
                {
                  OFFSET -0.742457 0.935729 -0.586563
                }
              }
            }
          }
        }
      }
      JOINT RightCollar
      {
        OFFSET -3.000000 4.000000 0.000000
        CHANNELS 3 Xrotation Yrotation Zrotation
        JOINT RightShoulder
        {
          OFFSET -15.792676 2.209392 1.224738
          CHANNELS 3 Xrotation Yrotation Zrotation
          JOINT RightArm
          {
            OFFSET -2.495612 -27.698627 -14.139695
            CHANNELS 3 Xrotation Yrotation Zrotation
            JOINT RightForeArm
            {
              OFFSET 9.302673 7.642058 -20.278665
              CHANNELS 3 Xrotation Yrotation Zrotation
              JOINT RightHand
              {
                OFFSET 4.807220 4.843324 -4.521461
                CHANNELS 3 Xrotation Yrotation Zrotation
                End Site
                {
                  OFFSET 1.442166 1.452997 -1.356438
                }
              }
            }
          }
        }
      }
    }
  }
  JOINT LeftUpLeg
  {
    OFFSET 10.328032 0.296165 2.790499
    CHANNELS 3 Xrotation Yrotation Zrotation
    JOINT LeftLeg
    {
      OFFSET 12.238276 -41.735834 -6.323935
      CHANNELS 3 Xrotation Yrotation Zrotation
      JOINT LeftFoot
      {
        OFFSET 10.938167 -37.656560 14.235581
        CHANNELS 3 Xrotation Yrotation Zrotation
        End Site
        {
          OFFSET 3.281450 -11.296968 4.270674
        }
      }
    }
  }
  JOINT RightUpLeg
  {
    OFFSET -10.328032 -0.296165 -2.790499
    CHANNELS 3 Xrotation Yrotation Zrotation
    JOINT RightLeg
    {
      OFFSET -6.716455 -33.878452 3.035436
      CHANNELS 3 Xrotation Yrotation Zrotation
      JOINT RightFoot
      {
        OFFSET -13.584754 -38.742798 13.536227
        CHANNELS 3 Xrotation Yrotation Zrotation
        End Site
        {
          OFFSET -4.075426 -11.622839 4.060868
        }
      }
    }
  }
}
MOTION
Frames: 8
Frame Time: 0.083333
0.071091 0.194967 0.137445 0.038606 -0.009514 -0.019150 0.000000 0.000000 0.000000 -22.328588 7.080534 -5.653991 -47.276641 -10.693731 -3.857317 0.000000 0.000000 0.000000 22.942393 -4.391871 7.963984 0.150235 -0.022191 0.174494 1.104642 0.429804 -0.615231 -0.072287 -0.062614 -0.583014 0.000000 0.000000 0.000000 22.942393 -4.391871 7.963984 0.198285 0.001690 0.022297 0.340493 0.333987 0.331062 -0.325476 -0.166530 -0.000113 0.000000 0.000000 0.000000 6.762411 2.204738 -0.763113 -8.756686 -2.346278 1.696396 0.000000 0.000000 0.000000 11.061639 -2.179166 0.373934 -26.725378 6.927036 -1.147796 0.000000 0.000000 0.000000
0.070501 0.196794 0.132334 0.037925 -0.011474 -0.023953 0.000000 0.000000 0.000000 -22.328953 7.071142 -5.656916 -47.301938 -10.713354 -3.875542 0.000000 0.000000 0.000000 22.941887 -4.391871 7.963999 0.165809 -0.006725 0.173747 1.144593 0.399086 -0.639848 -0.162009 -0.038653 -0.511349 0.000000 0.000000 0.000000 22.941887 -4.391871 7.963999 0.226482 0.007027 0.033321 0.506345 0.319715 0.407470 -0.409730 -0.146441 0.025960 0.000000 0.000000 0.000000 6.790556 2.215925 -0.738280 -8.761535 -2.350299 1.662770 0.000000 0.000000 0.000000 11.059689 -2.175738 0.369855 -26.731908 6.938363 -1.116024 0.000000 0.000000 0.000000
0.069763 0.201392 0.122975 0.136587 -0.045619 -0.096955 0.000000 0.000000 0.000000 -22.335173 6.909684 -5.702578 -48.140512 -10.941657 -4.133815 0.000000 0.000000 0.000000 22.825160 -4.391895 7.964439 0.633273 0.095217 0.556318 3.336776 0.947130 -1.977220 -0.801779 0.014751 -1.231053 0.000000 0.000000 0.000000 22.825160 -4.391895 7.964439 0.824800 0.027228 0.287574 2.085169 1.087007 1.437723 -1.598240 -0.482167 0.029452 0.000000 0.000000 0.000000 2.698872 0.929635 -0.115782 -1.508513 -0.107074 1.312593 0.000000 0.000000 0.000000 10.886827 -2.110500 0.156525 -26.551139 6.857599 -0.674810 0.000000 0.000000 0.000000
0.069741 0.206685 0.115927 0.337700 -0.109089 -0.231994 0.000000 0.000000 0.000000 -22.349531 6.539368 -6.002727 -49.516190 -11.270258 -4.066674 0.000000 0.000000 0.000000 22.589584 -4.392062 7.966799 1.556973 0.574866 1.101593 4.914057 0.697042 -3.404153 -2.094230 0.390186 -1.338915 0.000000 0.000000 0.000000 22.589584 -4.392062 7.966799 1.886333 -0.043869 1.393596 4.819271 2.677365 2.731720 -3.745576 -1.187073 -0.380192 0.000000 0.000000 0.000000 0.256483 0.234100 0.551612 3.077748 1.317492 0.894295 0.000000 0.000000 0.000000 10.594298 -2.002143 -0.031049 -26.516268 6.891838 -0.060617 0.000000 0.000000 0.000000
0.070030 0.210804 0.111649 0.690755 -0.180227 -0.372658 0.000000 0.000000 0.000000 -22.370329 6.002788 -6.731347 -51.583373 -11.637388 -3.382765 0.000000 0.000000 0.000000 22.201125 -4.392612 7.973021 2.929082 1.453333 1.888344 5.173251 -0.387516 -4.623829 -3.303223 0.823460 -1.589794 0.000000 0.000000 0.000000 22.201125 -4.392612 7.973021 3.431497 -0.492137 3.953258 7.160107 5.939571 3.242177 -6.273174 -2.644960 -1.692493 0.000000 0.000000 0.000000 0.001365 0.291080 0.959722 3.787822 1.570763 0.767146 0.000000 0.000000 0.000000 10.161533 -1.890402 -0.096114 -26.534560 6.934078 0.322634 0.000000 0.000000 0.000000
0.070463 0.213480 0.109347 0.960635 -0.202476 -0.403181 0.000000 0.000000 0.000000 -22.381814 5.702793 -7.589041 -53.735076 -12.303159 -3.042401 0.000000 0.000000 0.000000 21.933865 -4.393692 7.981441 3.939723 2.206490 2.540166 5.772716 -1.280140 -5.569858 -4.381727 0.801492 -2.376006 0.000000 0.000000 0.000000 21.933865 -4.393692 7.981441 5.030170 -1.275738 6.768226 8.421508 9.123953 2.910888 -8.039685 -3.569382 -2.577419 0.000000 0.000000 0.000000 -0.200047 0.294034 1.228785 4.847772 1.903037 0.683658 0.000000 0.000000 0.000000 9.843059 -1.855688 -0.053963 -26.326047 6.882322 0.307391 0.000000 0.000000 0.000000
0.070643 0.215301 0.107834 1.162085 -0.211874 -0.408444 0.000000 0.000000 0.000000 -22.382822 5.677071 -8.453015 -55.361065 -13.005804 -2.730397 0.000000 0.000000 0.000000 21.762051 -4.395398 7.988868 4.850698 2.782948 3.160868 6.784475 -2.097764 -6.526391 -5.621182 0.838284 -2.909550 0.000000 0.000000 0.000000 21.762051 -4.395398 7.988868 6.296899 -1.741155 8.695839 8.548521 10.744134 2.435858 -8.772389 -3.501546 -2.639817 0.000000 0.000000 0.000000 -0.164558 0.331889 1.479559 5.849794 2.264947 0.786258 0.000000 0.000000 0.000000 9.607895 -1.840931 0.003053 -26.223684 6.840416 0.180310 0.000000 0.000000 0.000000
0.070360 0.216296 0.106548 1.101027 -0.205752 -0.398791 0.000000 0.000000 0.000000 -22.372606 5.946654 -9.056242 -56.625771 -13.497811 -2.611911 0.000000 0.000000 0.000000 21.866157 -4.397560 7.991545 5.757215 3.109519 3.534559 7.602088 -2.915830 -7.270118 -6.576539 1.196425 -3.166308 0.000000 0.000000 0.000000 21.866157 -4.397560 7.991545 7.001416 -2.333270 10.270700 8.337077 11.442900 1.518855 -8.575814 -2.895040 -1.743997 0.000000 0.000000 0.000000 0.646360 0.513569 1.654902 5.807926 2.385349 1.064638 0.000000 0.000000 0.000000 9.655037 -1.845580 -0.014381 -26.100785 6.807489 0.206175 0.000000 0.000000 0.000000
